<?xml version="1.0" ?><svg viewBox="0 0 19.267 22.105" xmlns="http://www.w3.org/2000/svg"><defs><style>.cls-1{fill:#1a171b;}</style></defs><g data-name="Layer 2" id="Layer_2"><g data-name="Layer 1" id="Layer_1-2"><path class="cls-1" d="M18.932,6.2H13.068V.335A.335.335,0,0,0,12.733,0H.335A.335.335,0,0,0,0,.335v12.4a.335.335,0,0,0,.335.335H2.254v2.5a.335.335,0,0,0,.531.272L6.2,13.387v5.545a.334.334,0,0,0,.335.334h6.091l3.857,2.776a.334.334,0,0,0,.2.063.338.338,0,0,0,.335-.335v-2.5h1.919a.334.334,0,0,0,.335-.334V6.534A.335.335,0,0,0,18.932,6.2ZM6.339,12.461,2.924,14.918V12.733a.335.335,0,0,0-.335-.335H.67V.67H12.4V12.4H6.534A.331.331,0,0,0,6.339,12.461ZM18.6,18.6H16.678a.335.335,0,0,0-.335.335v2.185L12.928,18.66a.331.331,0,0,0-.2-.063H6.869V13.068h5.864a.335.335,0,0,0,.335-.335V6.869H18.6ZM10.106,6.869H6.716a.335.335,0,0,1,0-.67h3.39A.335.335,0,0,1,10.106,6.869ZM2.961,6.2H4.929a.335.335,0,1,1,0,.67H2.961A.335.335,0,0,1,2.961,6.2Zm7.145-2.457H8.5a.335.335,0,0,1,0-.669h1.6A.335.335,0,0,1,10.106,3.742ZM2.961,3.073H6.716a.335.335,0,0,1,0,.669H2.961A.335.335,0,0,1,2.961,3.073ZM7.873,9.995H2.961a.335.335,0,0,1,0-.67H7.873A.335.335,0,0,1,7.873,9.995Z" id="feedback"/></g></g></svg>