<?xml version="1.0" ?><!DOCTYPE svg  PUBLIC '-//W3C//DTD SVG 1.1//EN'  'http://www.w3.org/Graphics/SVG/1.1/DTD/svg11.dtd'><svg height="100%" style="fill-rule:evenodd;clip-rule:evenodd;stroke-linejoin:round;stroke-miterlimit:2;" version="1.1" viewBox="0 0 32 32" width="100%" xml:space="preserve" xmlns="http://www.w3.org/2000/svg" xmlns:serif="http://www.serif.com/" xmlns:xlink="http://www.w3.org/1999/xlink"><path d="M16,14.586l-11.293,-11.293c-0.39,-0.39 -1.024,-0.39 -1.414,-0c-0.39,0.39 -0.39,1.024 -0,1.414l11.293,11.293l-3.829,3.829c-0.791,-0.524 -1.738,-0.829 -2.757,-0.829c-2.76,0 -5,2.24 -5,5c0,2.76 2.24,5 5,5c2.76,0 5,-2.24 5,-5c0,-1.019 -0.305,-1.966 -0.829,-2.757l3.829,-3.829l3.829,3.829c-0.524,0.791 -0.829,1.738 -0.829,2.757c0,2.76 2.24,5 5,5c2.76,0 5,-2.24 5,-5c0,-2.76 -2.24,-5 -5,-5c-1.019,0 -1.966,0.305 -2.757,0.829l-3.829,-3.829l11.293,-11.293c0.39,-0.39 0.39,-1.024 0,-1.414c-0.39,-0.39 -1.024,-0.39 -1.414,-0l-11.293,11.293Zm-8,6.414c1.656,0 3,1.344 3,3c0,1.656 -1.344,3 -3,3c-1.656,0 -3,-1.344 -3,-3c0,-1.656 1.344,-3 3,-3Zm16,0c1.656,0 3,1.344 3,3c0,1.656 -1.344,3 -3,3c-1.656,0 -3,-1.344 -3,-3c0,-1.656 1.344,-3 3,-3Z"/></svg>