<?xml version="1.0" encoding="iso-8859-1"?>
<!-- Generator: Adobe Illustrator 23.0.2, SVG Export Plug-In . SVG Version: 6.00 Build 0)  -->
<svg version="1.1" id="_x31_0_Discount" xmlns="http://www.w3.org/2000/svg" xmlns:xlink="http://www.w3.org/1999/xlink" x="0px"
	 y="0px" viewBox="0 0 3872.983 3872.983" style="enable-background:new 0 0 3872.983 3872.983;" xml:space="preserve">
<g>
	<path d="M3365.395,2344.75h-437.419V507.589c0-32.211-26.114-58.323-58.323-58.323H770.04c-1.427,0-2.825,0.113-4.226,0.214
		c-2.802-0.077-5.59-0.214-8.412-0.214c-80.957,0-157.448,31.568-215.395,88.888c-57.474,56.85-90.4,132.741-92.718,213.692
		c-0.017,0.555-0.023,1.113-0.023,1.669v716.397c0,32.211,26.114,58.323,58.323,58.323h437.419v1837.161
		c0,32.211,26.114,58.323,58.323,58.323h2099.613c1.815,0,3.604-0.11,5.377-0.272c3.709,0.134,7.417,0.272,11.146,0.272
		c167.763,0,304.251-136.486,304.251-304.249v-716.396C3423.717,2370.861,3397.603,2344.75,3365.395,2344.75z M565.911,754.406
		c3.395-104.007,89.136-188.495,191.491-188.495c103.449,0,187.606,84.158,187.606,187.603v658.074H565.911V754.406z
		 M1061.653,1469.911V753.515c0-70.745-24.339-135.872-64.991-187.603H2811.33v1837.161v716.396c0,0.555,0.006,1.114,0.023,1.669
		c1.959,68.424,25.862,133.184,67.897,185.934H1061.653V1469.911z M3307.072,3119.469c0,103.446-84.157,187.603-187.606,187.603
		c-102.355,0-188.096-84.488-191.491-188.495v-657.183h379.097V3119.469z"/>
	<path d="M1441.61,2110.602c11.391,11.388,26.313,17.081,41.242,17.081s29.85-5.696,41.242-17.084l907.281-907.283
		c22.777-22.777,22.777-59.707,0-82.483c-22.782-22.777-59.701-22.774-82.483,0.003l-907.281,907.283
		C1418.833,2050.896,1418.833,2087.826,1441.61,2110.602z"/>
	<path d="M1606.57,1519.087c62.309,0,120.894-24.269,164.961-68.33c90.958-90.961,90.958-238.963,0-329.924
		c-44.067-44.061-102.651-68.327-164.961-68.327c-62.315,0-120.9,24.266-164.961,68.327c-90.958,90.961-90.958,238.963,0,329.921
		C1485.671,1494.818,1544.255,1519.087,1606.57,1519.087z M1524.093,1203.313c22.03-22.03,51.317-34.162,82.477-34.162
		c31.155,0,60.447,12.132,82.477,34.165c45.479,45.479,45.479,119.479,0,164.958c-22.03,22.033-51.323,34.168-82.477,34.168
		c-31.16,0-60.447-12.134-82.477-34.168C1478.614,1322.795,1478.614,1248.795,1524.093,1203.313z"/>
	<path d="M2431.374,1780.681c-44.061-44.064-102.646-68.333-164.961-68.333c-62.309,0-120.894,24.269-164.96,68.33
		c-90.958,90.961-90.958,238.963,0,329.924c44.066,44.061,102.651,68.327,164.96,68.327c62.315,0,120.9-24.266,164.961-68.33v0.003
		C2522.332,2019.641,2522.332,1871.639,2431.374,1780.681z M2348.89,2028.119c0,0.003,0,0.003,0,0.003
		c-22.031,22.03-51.317,34.162-82.478,34.162c-31.155,0-60.447-12.132-82.477-34.165c-45.479-45.479-45.479-119.479,0-164.958
		c22.03-22.033,51.323-34.168,82.477-34.168c31.16,0,60.447,12.134,82.478,34.168
		C2394.369,1908.64,2394.369,1982.64,2348.89,2028.119z"/>
	<path d="M2636.363,2840.491H1236.621c-32.208,0-58.323,26.111-58.323,58.323c0,32.211,26.114,58.323,58.323,58.323h1399.742
		c32.208,0,58.323-26.111,58.323-58.323C2694.685,2866.603,2668.571,2840.491,2636.363,2840.491z"/>
	<path d="M2636.363,3073.782H1236.621c-32.208,0-58.323,26.111-58.323,58.323c0,32.211,26.114,58.323,58.323,58.323h1399.742
		c32.208,0,58.323-26.111,58.323-58.323C2694.685,3099.893,2668.571,3073.782,2636.363,3073.782z"/>
</g>
</svg>
